{
	"patcher" : 	{
		"fileversion" : 1,
		"appversion" : 		{
			"major" : 9,
			"minor" : 0,
			"revision" : 5,
			"architecture" : "x64",
			"modernui" : 1
		}
,
		"classnamespace" : "box",
		"rect" : [ 163.0, 87.0, 1265.0, 953.0 ],
		"gridsize" : [ 15.0, 15.0 ],
		"boxes" : [ 			{
				"box" : 				{
					"id" : "obj-289",
					"maxclass" : "message",
					"numinlets" : 2,
					"numoutlets" : 1,
					"outlettype" : [ "" ],
					"patching_rect" : [ 1071.0, 97.0, 66.0, 22.0 ],
					"text" : "hard_reset"
				}

			}
, 			{
				"box" : 				{
					"id" : "obj-272",
					"linecount" : 2,
					"maxclass" : "comment",
					"numinlets" : 1,
					"numoutlets" : 0,
					"patching_rect" : [ 1024.0, 144.0, 232.0, 33.0 ],
					"text" : "Creates, configures, and triggers a macro-voice of the Botta Synth"
				}

			}
, 			{
				"box" : 				{
					"comment" : "",
					"id" : "obj-2040",
					"index" : 2,
					"maxclass" : "outlet",
					"numinlets" : 1,
					"numoutlets" : 0,
					"patching_rect" : [ 948.0, 693.5, 30.0, 30.0 ],
					"varname" : "outlet_right"
				}

			}
, 			{
				"box" : 				{
					"comment" : "",
					"id" : "obj-2039",
					"index" : 1,
					"maxclass" : "outlet",
					"numinlets" : 1,
					"numoutlets" : 0,
					"patching_rect" : [ 884.0, 693.5, 30.0, 30.0 ],
					"varname" : "outlet_left"
				}

			}
, 			{
				"box" : 				{
					"id" : "obj-30",
					"maxclass" : "message",
					"numinlets" : 2,
					"numoutlets" : 1,
					"outlettype" : [ "" ],
					"patching_rect" : [ 995.0, 93.0, 70.0, 22.0 ],
					"text" : "clearVoices"
				}

			}
, 			{
				"box" : 				{
					"id" : "obj-173",
					"maxclass" : "message",
					"numinlets" : 2,
					"numoutlets" : 1,
					"outlettype" : [ "" ],
					"patching_rect" : [ 965.0, 63.0, 65.0, 22.0 ],
					"text" : "debug_me"
				}

			}
, 			{
				"box" : 				{
					"id" : "obj-1",
					"maxclass" : "newobj",
					"numinlets" : 1,
					"numoutlets" : 1,
					"outlettype" : [ "" ],
					"patching_rect" : [ 909.0, 144.0, 101.0, 22.0 ],
					"saved_object_attributes" : 					{
						"filename" : "createVoices.js",
						"parameter_enable" : 0
					}
,
					"text" : "js createVoices.js"
				}

			}
, 			{
				"box" : 				{
					"comment" : "",
					"id" : "obj-8603",
					"index" : 1,
					"maxclass" : "inlet",
					"numinlets" : 0,
					"numoutlets" : 1,
					"outlettype" : [ "" ],
					"patching_rect" : [ 909.0, 89.0, 30.0, 30.0 ]
				}

			}
, 			{
				"box" : 				{
					"comment" : "",
					"id" : "obj-305",
					"index" : 3,
					"maxclass" : "outlet",
					"numinlets" : 1,
					"numoutlets" : 0,
					"patching_rect" : [ 1010.0, 693.5, 30.0, 30.0 ],
					"varname" : "bang_when_complete"
				}

			}
 ],
		"lines" : [ 			{
				"patchline" : 				{
					"destination" : [ "obj-1", 0 ],
					"source" : [ "obj-173", 0 ]
				}

			}
, 			{
				"patchline" : 				{
					"destination" : [ "obj-1", 0 ],
					"source" : [ "obj-289", 0 ]
				}

			}
, 			{
				"patchline" : 				{
					"destination" : [ "obj-1", 0 ],
					"source" : [ "obj-30", 0 ]
				}

			}
, 			{
				"patchline" : 				{
					"destination" : [ "obj-1", 0 ],
					"midpoints" : [ 918.5, 141.0, 918.5, 141.0 ],
					"source" : [ "obj-8603", 0 ]
				}

			}
 ],
		"originid" : "pat-460"
	}

}
